<?xml version="1.0" standalone="no"?>
<!DOCTYPE svg PUBLIC "-//W3C//DTD SVG 20010904//EN"
 "http://www.w3.org/TR/2001/REC-SVG-20010904/DTD/svg10.dtd">
<svg version="1.0" xmlns="http://www.w3.org/2000/svg"
 width="282.000000pt" height="282.000000pt" viewBox="0 0 282.000000 282.000000"
 preserveAspectRatio="xMidYMid meet">
<metadata>
Created by potrace 1.11, written by Peter Selinger 2001-2013
</metadata>
<g transform="translate(0.000000,282.000000) scale(0.100000,-0.100000)"
fill="#000000" stroke="none">
<path d="M946 2632 c-2 -1 -26 -5 -52 -7 -27 -2 -62 -9 -79 -16 -16 -7 -32
-13 -35 -14 -18 -4 -110 -57 -115 -65 -4 -6 -10 -8 -14 -6 -7 5 -24 -10 -69
-60 -11 -12 -25 -23 -31 -25 -6 -2 -14 -17 -17 -32 -3 -21 -1 -27 7 -21 9 5
10 0 5 -17 -4 -13 -9 -37 -12 -54 -3 -16 -7 -39 -9 -50 -2 -11 -4 -26 -4 -33
-1 -6 -4 -11 -8 -11 -24 4 -35 -2 -26 -13 11 -14 13 -48 3 -48 -3 0 -6 -12 -7
-27 0 -16 -3 -39 -7 -53 -3 -14 -8 -44 -10 -65 -2 -22 -7 -62 -11 -90 -10 -77
-12 -227 -4 -297 15 -132 21 -175 34 -233 7 -33 10 -64 6 -70 -5 -5 -3 -23 3
-40 17 -46 64 -133 76 -140 6 -3 17 -21 25 -38 8 -18 19 -39 24 -47 5 -8 19
-37 32 -65 46 -99 132 -204 269 -329 36 -32 108 -100 161 -151 90 -86 119
-105 239 -160 19 -8 69 -34 110 -56 68 -36 81 -40 140 -38 36 1 74 6 85 12 22
11 85 73 85 85 0 4 20 28 43 54 24 25 49 65 57 88 7 22 26 53 41 68 20 20 34
50 48 107 11 44 27 100 36 125 10 25 19 56 22 70 8 42 11 55 13 55 3 0 8 30
15 91 3 32 15 84 26 114 26 70 28 81 36 160 6 72 7 381 0 448 -2 23 -1 45 3
47 4 3 6 33 3 67 -2 35 -5 81 -7 103 -1 22 -8 50 -15 63 -11 20 -10 26 6 39
10 8 13 12 6 9 -18 -9 -25 11 -13 34 8 15 8 20 -1 20 -7 0 -9 3 -6 7 4 3 2 12
-4 20 -6 7 -8 13 -5 13 4 0 1 10 -6 23 -6 12 -12 35 -13 50 0 15 -5 31 -11 35
-6 4 -10 15 -9 24 2 10 0 17 -3 17 -22 -3 -32 3 -32 21 0 22 -26 39 -52 35
-10 -2 -18 2 -18 8 0 11 -83 61 -105 63 -19 2 -50 17 -80 39 -43 31 -98 59
-112 57 -6 -1 -14 6 -18 17 -4 12 -12 18 -21 14 -7 -3 -14 0 -14 6 0 7 -10 10
-25 7 -13 -3 -27 0 -31 5 -3 6 -12 8 -20 5 -7 -3 -34 1 -59 8 -25 8 -45 12
-45 9 0 -3 -6 -1 -12 4 -7 5 -29 8 -48 7 -114 -6 -139 -6 -150 1 -16 10 -206
26 -214 17z"/>
</g>
</svg>
